<svg xmlns="http://www.w3.org/2000/svg" width="960" height="420" viewBox="0 0 960 420" fill="none">
  <rect width="960" height="420" rx="28" fill="#F8FBFB"/>
  <rect x="60" y="74" width="240" height="272" rx="22" fill="#FFFFFF" stroke="#CFE1E3" stroke-width="2"/>
  <text x="92" y="122" fill="#165F68" font-family="Arial, sans-serif" font-size="28" font-weight="700">HTML</text>
  <rect x="92" y="152" width="176" height="52" rx="14" fill="#EEF6F7"/>
  <text x="112" y="184" fill="#0F4F57" font-family="Arial, sans-serif" font-size="20">&lt;p id="status"&gt;</text>
  <rect x="92" y="224" width="176" height="52" rx="14" fill="#FFF1E8"/>
  <text x="112" y="256" fill="#B45309" font-family="Arial, sans-serif" font-size="20">&lt;button&gt;</text>
  <rect x="360" y="118" width="248" height="184" rx="22" fill="#FFFFFF" stroke="#CFE1E3" stroke-width="2"/>
  <text x="392" y="164" fill="#165F68" font-family="Arial, sans-serif" font-size="28" font-weight="700">Javascript</text>
  <text x="392" y="210" fill="#22343D" font-family="Courier New, monospace" font-size="18">document.querySelector("#status")</text>
  <text x="392" y="246" fill="#22343D" font-family="Courier New, monospace" font-size="18">statusElement.textContent = ...</text>
  <rect x="668" y="74" width="232" height="272" rx="22" fill="#FFFFFF" stroke="#CFE1E3" stroke-width="2"/>
  <text x="700" y="122" fill="#165F68" font-family="Arial, sans-serif" font-size="28" font-weight="700">Browser</text>
  <rect x="700" y="152" width="168" height="140" rx="18" fill="#EEF6F7"/>
  <text x="724" y="204" fill="#0F4F57" font-family="Arial, sans-serif" font-size="24" font-weight="700">Status</text>
  <text x="724" y="238" fill="#0F4F57" font-family="Arial, sans-serif" font-size="18">wird sichtbar</text>
  <path d="M300 210H344" stroke="#DD6B20" stroke-width="8" stroke-linecap="round"/>
  <path d="M608 210H652" stroke="#DD6B20" stroke-width="8" stroke-linecap="round"/>
  <path d="M344 210L329 198" stroke="#DD6B20" stroke-width="8" stroke-linecap="round"/>
  <path d="M344 210L329 222" stroke="#DD6B20" stroke-width="8" stroke-linecap="round"/>
  <path d="M652 210L637 198" stroke="#DD6B20" stroke-width="8" stroke-linecap="round"/>
  <path d="M652 210L637 222" stroke="#DD6B20" stroke-width="8" stroke-linecap="round"/>
</svg>
